<svg version="1.1" xmlns="http://www.w3.org/2000/svg" xmlns:xlink="http://www.w3.org/1999/xlink" width="512" height="512" viewBox="0 0 512 512">
    <path d="M162.9 232.75v55.9h92.4c-3.7 24-27.9 70.3-92.4 70.3-55.6 0-101-46.1-101-102.9s45.4-102.9 101-102.9c31.7 0 52.8 13.5 64.9 25.1l44.2-42.6c-28.4-26.5-65.2-42.6-109.1-42.6-90.1 0.1-162.9 72.9-162.9 163s72.8 162.9 162.9 162.9c94 0 156.4-66.1 156.4-159.2 0-10.7-1.2-18.9-2.6-27h-153.8z"></path>
    <path d="M512 228.050h-48v-48h-48v48h-48v48h48v48h48v-48h48z"></path>
</svg>
