<?xml version="1.0" encoding="utf-8"?><svg xmlns="http://www.w3.org/2000/svg" xmlns:xlink="http://www.w3.org/1999/xlink"><symbol viewBox="0 0 256 512" id="facebook"><path d="M176 96h80V0h-80C114.243 0 64 50.243 64 112v48H0v96h64v256h96V256h80l16-96h-96v-48c0-8.673 7.327-16 16-16z"/></symbol><symbol viewBox="0 0 512 512" id="google"><path d="M162.9 232.75v55.9h92.4c-3.7 24-27.9 70.3-92.4 70.3-55.6 0-101-46.1-101-102.9s45.4-102.9 101-102.9c31.7 0 52.8 13.5 64.9 25.1l44.2-42.6c-28.4-26.5-65.2-42.6-109.1-42.6-90.1.1-162.9 72.9-162.9 163s72.8 162.9 162.9 162.9c94 0 156.4-66.1 156.4-159.2 0-10.7-1.2-18.9-2.6-27H162.9zM512 228.05h-48v-48h-48v48h-48v48h48v48h48v-48h48z"/></symbol><symbol viewBox="0 0 512 512" id="twitter"><path d="M512.05 97.2c-18.8 8.4-39.1 14-60.3 16.5 21.7-13 38.3-33.6 46.2-58.1-20.3 12-42.8 20.8-66.7 25.5-19.2-20.4-46.5-33.1-76.7-33.1-58 0-105 47-105 105 0 8.2.9 16.2 2.7 23.9-87.3-4.4-164.7-46.2-216.5-109.8-9 15.5-14.2 33.6-14.2 52.8 0 36.4 18.5 68.6 46.7 87.4-17.2-.5-33.4-5.3-47.6-13.1v1.3c0 50.9 36.2 93.4 84.3 103-8.8 2.4-18.1 3.7-27.7 3.7-6.8 0-13.3-.7-19.8-1.9 13.4 41.7 52.2 72.1 98.1 73-36 28.2-81.2 45-130.5 45-8.5 0-16.8-.5-25.1-1.5 46.6 29.9 101.8 47.2 161.1 47.2 193.2 0 298.9-160.1 298.9-298.9 0-4.6-.1-9.1-.3-13.6 20.5-14.7 38.3-33.2 52.4-54.3z"/></symbol></svg>
