<svg xmlns="http://www.w3.org/2000/svg" viewBox="0 0 108 108">
    <style type="text/css">
        .st0{fill-rule:evenodd;clip-rule:evenodd;fill:#FE4365;}
    </style>
    <g>
        <path class="st0" d="M106.6,41.8L85,65.6c1.4,2,2.2,4.4,2.2,6.9c0,6.6-5.4,12-12,12s-12-5.4-12-12c0-1.7,0.4-3.3,1-4.8L40.7,46.5
            c-2,1.5-4.5,2.5-7.3,2.5c-0.2,0-0.4,0-0.7,0l-5.4,30.6c4,1.9,6.8,6,6.8,10.8c0,4.7-2.7,8.7-6.6,10.7c7.8,4.4,16.8,6.9,26.4,6.9
            c29.8,0,54-24.2,54-54C108,49.8,107.5,45.7,106.6,41.8z"/>
        <path class="st0" d="M27,47.1c-3.3-2.1-5.6-5.9-5.6-10.1c0-6.6,5.4-12,12-12s12,5.4,12,12c0,1.7-0.4,3.3-1,4.8L68,63
            c2-1.6,4.5-2.5,7.3-2.5c1.9,0,3.6,0.4,5.2,1.2l24.1-26.6C96.9,14.6,77.2,0,54,0C24.2,0,0,24.2,0,54c0,12.2,4,23.4,10.8,32.5
            c1.6-4.5,5.7-7.8,10.7-8.1L27,47.1z"/>
        <circle class="st0" cx="22.2" cy="90.4" r="6"/>
    </g>
</svg>
