<svg xmlns="http://www.w3.org/2000/svg" viewBox="0 0 24 19.5" width="30" height="24" class="c-icon__svg" aria-hidden="true" style="width:1.875em"><path d="M24 2.3c-.9.4-1.8.7-2.8.8 1-.6 1.8-1.6 2.2-2.7-1 .6-2 1-3.1 1.2C19.3.6 18 0 16.6 0c-2.7 0-4.9 2.2-4.9 4.9 0 .4 0 .8.1 1.1C7.7 5.8 4.1 3.9 1.7.9c-.4.7-.7 1.6-.7 2.5 0 1.7.9 3.2 2.2 4.1-.8-.1-1.6-.3-2.2-.6V7c0 2.4 1.7 4.4 4 4.8-.4.1-.8.2-1.3.2-.3 0-.6 0-.9-.1.6 2 2.4 3.4 4.6 3.4-1.7 1.3-3.8 2.1-6.1 2.1-.4 0-.8 0-1.2-.1 2.2 1.4 4.8 2.2 7.6 2.2 9.1 0 14-7.5 14-14v-.6c.8-.7 1.6-1.6 2.3-2.6z"/></svg>